<svg width="289" height="66" viewBox="0 0 289 66" fill="none" xmlns="http://www.w3.org/2000/svg">
<path d="M59.56 65.2935C58.5866 65.3608 57.6096 65.2317 56.6871 64.9138C55.7646 64.596 54.9154 64.096 54.19 63.4435C52.9214 62.1438 52.0566 60.5044 51.7 58.7235C51.2602 56.7796 50.9792 54.8031 50.86 52.8135C50.86 51.6335 50.92 50.2535 51.05 48.6435C51.18 47.0335 51.34 45.4835 51.56 43.9735C51.78 42.4635 51.94 41.3435 52.06 40.6035H30.89C26.9633 44.7302 23.2167 48.7535 19.65 52.6735C16.0833 56.5935 12.6167 60.5535 9.25 64.5535H0C1.6 63.0735 3.71 61.0735 6.33 58.5535C8.95 56.0335 11.9267 53.1835 15.26 50.0035C18.5933 46.8035 22.06 43.3969 25.66 39.7835C29.26 36.1702 32.8833 32.5435 36.53 28.9035C40.1767 25.2369 43.6133 21.6902 46.84 18.2635C50.0667 14.8369 52.95 11.7502 55.49 9.00354C56.72 7.62354 57.88 6.24354 59 4.85354C60.0315 3.5159 61.2666 2.34837 62.66 1.39354C64.1268 0.438253 65.8502 -0.0466762 67.6 0.00354094H74.26C72.9073 1.45722 71.8419 3.15373 71.12 5.00354C70.0247 7.47424 69.0796 10.0089 68.29 12.5935C67.43 15.3002 66.7367 17.7702 66.21 20.0035C65.4033 23.3369 64.5867 26.9369 63.76 30.8035C62.9333 34.6702 62.2667 38.5202 61.76 42.3535C61.2822 45.8821 61.1315 49.4473 61.31 53.0035C61.3817 54.2457 61.6171 55.473 62.01 56.6535C62.3638 57.8426 62.9596 58.9457 63.76 59.8935C64.1142 60.3226 64.5608 60.666 65.0665 60.898C65.5722 61.1301 66.1238 61.2448 66.68 61.2335C67.9146 61.161 69.102 60.7339 70.1 60.0035L70.65 60.8335C69.4888 62.335 67.893 63.4419 66.08 64.0035C64.0037 64.8281 61.7939 65.2654 59.56 65.2935ZM22.56 18.4035C21.6469 17.4673 20.9116 16.3728 20.39 15.1735C19.9522 14.173 19.7177 13.0955 19.7 12.0035C19.6996 10.7744 19.9657 9.55986 20.48 8.44354C20.9578 7.38043 21.5989 6.39857 22.38 5.53354C23.8851 3.84812 25.7953 2.57461 27.93 1.83354C30.2117 1.02745 32.5881 0.51991 35 0.323541C37.5 0.110208 39.89 0.00354094 42.17 0.00354094H62.88C61.2108 1.49279 59.1855 2.52611 57 3.00354C54.1947 3.74617 51.3362 4.27107 48.45 4.57354C45.37 4.91354 42.3933 5.22021 39.52 5.49354C37.1431 5.70025 34.7817 6.05764 32.45 6.56354C29.5499 7.08237 26.9181 8.58727 25 10.8235C23.2914 12.9691 22.4239 15.6641 22.56 18.4035ZM35 36.0035H52.71C53.45 31.9369 54.33 27.8702 55.35 23.8035C56.35 19.7335 57.27 16.1535 58.08 13.0735C54.3133 16.6535 50.4733 20.3669 46.56 24.2135C42.6467 28.0602 38.7933 31.9902 35 36.0035Z" fill="url(#paint0_linear_20_158)"/>
<path d="M69.5 64.5535V63.8835C69.874 63.9198 70.2512 63.865 70.5994 63.724C70.9477 63.583 71.2566 63.3598 71.5 63.0735C71.9473 62.201 72.1413 61.2206 72.06 60.2435V45.9335C72.1432 44.9467 71.9492 43.9561 71.5 43.0735C71.2546 42.7904 70.945 42.57 70.5971 42.4309C70.2491 42.2917 69.873 42.2378 69.5 42.2735V41.6135H80.11C84.03 41.6135 87.1667 42.7269 89.52 44.9535C90.6767 46.0418 91.5894 47.3629 92.1979 48.8299C92.8064 50.2968 93.0968 51.8761 93.05 53.4635C93.1179 54.9726 92.8541 56.4783 92.277 57.8743C91.6999 59.2704 90.8237 60.5229 89.71 61.5435C87.4833 63.5435 84.3833 64.5435 80.41 64.5435L69.5 64.5535ZM79.5 42.4935H75.13V59.4335C75.0337 60.5792 75.2371 61.7302 75.72 62.7735C76.0041 63.1094 76.3685 63.3681 76.7794 63.5254C77.1902 63.6828 77.6342 63.7337 78.07 63.6735H80.43C81.6712 63.7375 82.9112 63.5259 84.061 63.0539C85.2107 62.5819 86.2417 61.8612 87.08 60.9435C88.7926 58.8551 89.6597 56.2002 89.51 53.5035C89.6569 50.5995 88.7116 47.7456 86.86 45.5035C85.9316 44.4895 84.7901 43.6937 83.5175 43.1732C82.245 42.6528 80.8729 42.4207 79.5 42.4935Z" fill="url(#paint1_linear_20_158)"/>
<path d="M115.21 41.6135V42.3135C113.53 42.3135 112.14 43.8002 111.04 46.7735L104.27 64.8635H103.62L96.52 46.2435C96.1483 45.066 95.5617 43.9675 94.79 43.0035C94.2121 42.517 93.4751 42.2607 92.72 42.2835V41.6235H101.05V42.2835C99.71 42.2835 99.05 42.8035 99.05 43.8335C99.0585 44.2358 99.1434 44.6329 99.3 45.0035L104.91 59.8135L110.24 45.5135C110.438 45.0093 110.55 44.475 110.57 43.9335C110.57 42.8435 109.89 42.3035 108.57 42.3035V41.6435L115.21 41.6135Z" fill="url(#paint2_linear_20_158)"/>
<path d="M125.09 41.6135V42.2735C124.717 42.2378 124.341 42.2917 123.993 42.4309C123.645 42.57 123.335 42.7904 123.09 43.0735C122.641 43.9561 122.447 44.9467 122.53 45.9335V60.2435C122.445 61.2273 122.639 62.2149 123.09 63.0935C123.336 63.3749 123.646 63.5933 123.994 63.7307C124.342 63.8681 124.718 63.9205 125.09 63.8835V64.5535H116.83V63.8835C117.211 63.9308 117.598 63.8845 117.957 63.7486C118.316 63.6127 118.636 63.3913 118.89 63.1035C119.335 62.2196 119.525 61.2294 119.44 60.2435V45.9335C119.53 44.942 119.343 43.9449 118.9 43.0535C118.645 42.7643 118.323 42.542 117.962 42.406C117.601 42.27 117.212 42.2245 116.83 42.2735V41.6135H125.09Z" fill="url(#paint3_linear_20_158)"/>
<path d="M142.38 42.7235H138.9V60.3635C138.811 61.3259 138.987 62.2943 139.41 63.1635C139.658 63.4391 139.971 63.649 140.32 63.7746C140.669 63.9002 141.043 63.9376 141.41 63.8835V64.5535H133.29V63.8835C133.676 63.9332 134.068 63.883 134.428 63.7377C134.789 63.5923 135.107 63.3568 135.35 63.0535C135.784 62.1838 135.974 61.2127 135.9 60.2435V42.7235H132.57C131.364 42.6336 130.158 42.8977 129.1 43.4835C128.712 43.7791 128.397 44.1602 128.18 44.5973C127.963 45.0344 127.85 45.5156 127.85 46.0035H127.16V40.7535H127.85C128.858 41.44 130.078 41.7449 131.29 41.6135H143.29C144.565 41.7329 145.843 41.4308 146.93 40.7535H147.65V46.0035H147.2C147.129 45.4909 146.956 44.9977 146.692 44.5529C146.427 44.1081 146.076 43.7207 145.66 43.4135C144.65 42.8877 143.516 42.6491 142.38 42.7235Z" fill="url(#paint4_linear_20_158)"/>
<path d="M158.05 41.6135V42.2735C157.677 42.2378 157.301 42.2917 156.953 42.4309C156.605 42.57 156.295 42.7904 156.05 43.0735C155.592 43.9533 155.394 44.9454 155.48 45.9335V60.2435C155.392 61.2285 155.59 62.218 156.05 63.0935C156.296 63.3749 156.607 63.5933 156.954 63.7307C157.302 63.8681 157.678 63.9205 158.05 63.8835V64.5535H149.79V63.8835C150.171 63.9308 150.558 63.8845 150.917 63.7486C151.276 63.6127 151.596 63.3913 151.85 63.1035C152.29 62.2182 152.477 61.2284 152.39 60.2435V45.9335C152.477 44.9432 152.294 43.9478 151.86 43.0535C151.605 42.7643 151.283 42.542 150.922 42.406C150.561 42.27 150.173 42.2245 149.79 42.2735V41.6135H158.05Z" fill="url(#paint5_linear_20_158)"/>
<path d="M177 44.8735L171.85 53.0035V60.2335C171.76 61.2218 171.947 62.2154 172.39 63.1035C172.633 63.3881 172.943 63.6075 173.292 63.7419C173.642 63.8764 174.019 63.9216 174.39 63.8735V64.5435H166V63.8735C166.415 63.9306 166.838 63.8857 167.231 63.7429C167.625 63.6 167.978 63.3634 168.26 63.0535C168.7 62.1821 168.89 61.2062 168.81 60.2335V53.0035L163.92 45.3935C163.383 44.4701 162.709 43.6339 161.92 42.9135C161.299 42.4872 160.563 42.2604 159.81 42.2635V41.6035H168.81V42.2635C167.24 42.2635 166.45 42.6235 166.45 43.3435C166.489 43.7832 166.652 44.2028 166.92 44.5535L171.45 51.5035L175.09 45.7435C175.55 45.0916 175.826 44.3285 175.89 43.5335C175.89 42.6935 175.38 42.2635 174.37 42.2635V41.6035H180.67V42.2635C179.965 42.2629 179.273 42.4567 178.67 42.8235C177.995 43.4017 177.43 44.096 177 44.8735Z" fill="url(#paint6_linear_20_158)"/>
<path d="M193.51 64.5535V63.8835C194.82 63.8835 195.51 63.4335 195.51 62.5135C195.502 62.212 195.441 61.9142 195.33 61.6335L193.2 55.2635H185.84L184.27 59.8735C183.954 60.6845 183.756 61.5364 183.68 62.4035C183.68 63.4035 184.29 63.8635 185.5 63.8835V64.5535H179.57V63.8835C180.31 63.8287 181.013 63.5338 181.57 63.0435C182.242 62.2384 182.73 61.2965 183 60.2835L189.34 41.3535H191.7L198.37 61.1235C198.573 61.9702 198.994 62.7493 199.59 63.3835C200.202 63.7667 200.921 63.942 201.64 63.8835V64.5535H193.51ZM186.23 53.8535H192.7L189.45 44.1335L186.23 53.8535Z" fill="url(#paint7_linear_20_158)"/>
<path d="M215.65 62.9136H227V64.5536H213.81V63.7536C216.596 61.0003 219.135 58.0089 221.4 54.8136C222.739 52.9821 223.514 50.7994 223.63 48.5336C223.708 47.1491 223.309 45.7799 222.5 44.6536C222.137 44.1885 221.668 43.8169 221.132 43.5699C220.597 43.3229 220.009 43.2076 219.42 43.2336C218.891 43.2173 218.364 43.3062 217.87 43.495C217.375 43.6838 216.923 43.9688 216.54 44.3336C215.734 45.1592 215.257 46.2511 215.2 47.4036H214.53C214.583 46.3469 214.888 45.3182 215.42 44.4036C215.943 43.4085 216.706 42.5595 217.64 41.9336C218.529 41.3458 219.574 41.0392 220.64 41.0536C221.417 41.0445 222.188 41.2043 222.897 41.522C223.607 41.8397 224.239 42.3076 224.75 42.8936C225.892 44.1406 226.502 45.7838 226.45 47.4736C226.329 49.8819 225.474 52.1955 224 54.1036C221.54 57.3307 218.741 60.2843 215.65 62.9136Z" fill="url(#paint8_linear_20_158)"/>
<path d="M231.39 64.5535V63.8835C231.774 63.9308 232.163 63.8815 232.523 63.74C232.883 63.5986 233.201 63.3695 233.45 63.0735C233.884 62.1968 234.071 61.2184 233.99 60.2435V45.9335C234.072 44.9468 233.889 43.9561 233.46 43.0635C233.206 42.7725 232.884 42.5482 232.523 42.4105C232.163 42.2728 231.773 42.2257 231.39 42.2735V41.6135H239.61V42.2735C239.235 42.2341 238.856 42.2883 238.507 42.4314C238.158 42.5746 237.85 42.8021 237.61 43.0935C237.169 43.9717 236.979 44.9543 237.06 45.9335V52.8535L244.55 45.4835C245.164 45.0113 245.587 44.3329 245.74 43.5735C245.74 42.9035 245.26 42.4735 244.29 42.2735V41.6135H253V42.2735H251.86C251.025 42.3126 250.212 42.5528 249.49 42.9735C248.569 43.4441 247.728 44.0585 247 44.7935L239.87 51.8535L249.35 61.4635C249.992 62.1815 250.721 62.8164 251.52 63.3535C252.182 63.6858 252.91 63.8668 253.65 63.8835V64.5535H248.19L237.05 53.3035V60.2435C236.972 61.2172 237.155 62.194 237.58 63.0735C237.82 63.3639 238.128 63.59 238.478 63.7314C238.827 63.8728 239.206 63.9251 239.58 63.8835V64.5535H231.39Z" fill="url(#paint9_linear_20_158)"/>
<path d="M258.64 62.9136H269.94V64.5536H256.8V63.7536C259.586 61.0003 262.125 58.0089 264.39 54.8136C265.729 52.9821 266.504 50.7994 266.62 48.5336C266.698 47.1491 266.299 45.7799 265.49 44.6536C265.127 44.1885 264.658 43.8169 264.122 43.5699C263.587 43.3229 262.999 43.2076 262.41 43.2336C261.881 43.2173 261.354 43.3062 260.86 43.495C260.365 43.6838 259.913 43.9688 259.53 44.3336C258.728 45.1618 258.252 46.2521 258.19 47.4036H257.52C257.573 46.3469 257.878 45.3182 258.41 44.4036C258.933 43.4085 259.696 42.5595 260.63 41.9336C261.519 41.3458 262.564 41.0392 263.63 41.0536C264.409 41.0444 265.181 41.2041 265.892 41.5217C266.603 41.8394 267.237 42.3074 267.75 42.8936C268.884 44.1443 269.49 45.7858 269.44 47.4736C269.322 49.8808 268.471 52.1943 267 54.1036C264.54 57.3337 261.737 60.2876 258.64 62.9136Z" fill="url(#paint10_linear_20_158)"/>
<path d="M277.63 52.8735V52.2135C282.297 51.3935 284.63 49.4569 284.63 46.4035C284.64 45.8782 284.546 45.3561 284.353 44.8671C284.161 44.3781 283.875 43.9318 283.51 43.5535C283.151 43.1768 282.718 42.879 282.237 42.6792C281.757 42.4795 281.24 42.3822 280.72 42.3935C279.952 42.388 279.201 42.6107 278.56 43.0335C277.897 43.4702 277.365 44.0784 277.02 44.7935L276.38 44.5235C276.738 43.4738 277.444 42.5778 278.38 41.9835C279.395 41.3186 280.587 40.9769 281.8 41.0035C283.275 40.9494 284.711 41.4774 285.8 42.4735C286.31 42.9324 286.716 43.4961 286.989 44.126C287.261 44.7559 287.395 45.4373 287.38 46.1235C287.396 47.2386 287.045 48.328 286.38 49.2235C285.601 50.2236 284.564 50.9913 283.38 51.4435V51.5235C284.807 51.899 286.076 52.7227 287 53.8735C287.902 55.0091 288.379 56.4237 288.35 57.8735C288.39 58.819 288.233 59.7625 287.889 60.644C287.544 61.5254 287.02 62.3256 286.35 62.9935C285.663 63.6608 284.848 64.182 283.955 64.5257C283.061 64.8694 282.107 65.0286 281.15 64.9935C280.121 65.011 279.1 64.817 278.15 64.4235C277.143 63.9248 276.235 63.2472 275.47 62.4235L275.96 61.9335C277.202 63.0667 278.801 63.7315 280.48 63.8135C281.824 63.8529 283.131 63.3648 284.12 62.4535C284.578 62.0058 284.937 61.4681 285.177 60.8743C285.416 60.2804 285.529 59.6435 285.51 59.0035C285.521 57.4332 284.976 55.9097 283.97 54.7035C283.5 54.0932 282.893 53.6022 282.198 53.2704C281.503 52.9385 280.74 52.7752 279.97 52.7935L277.63 52.8735Z" fill="url(#paint11_linear_20_158)"/>
<defs>
<linearGradient id="paint0_linear_20_158" x1="0" y1="32.6435" x2="288.37" y2="32.6435" gradientUnits="userSpaceOnUse">
<stop offset="0.01" stop-color="#FBC926"/>
<stop offset="0.25" stop-color="#FFFBCC"/>
<stop offset="0.44" stop-color="#FBF2BB"/>
<stop offset="0.82" stop-color="#F0D98E"/>
<stop offset="0.87" stop-color="#EED688"/>
<stop offset="1" stop-color="#FFFBCC"/>
</linearGradient>
<linearGradient id="paint1_linear_20_158" x1="-6.43533e-06" y1="32.6435" x2="288.37" y2="32.6435" gradientUnits="userSpaceOnUse">
<stop offset="0.01" stop-color="#FBC926"/>
<stop offset="0.25" stop-color="#FFFBCC"/>
<stop offset="0.44" stop-color="#FBF2BB"/>
<stop offset="0.82" stop-color="#F0D98E"/>
<stop offset="0.87" stop-color="#EED688"/>
<stop offset="1" stop-color="#FFFBCC"/>
</linearGradient>
<linearGradient id="paint2_linear_20_158" x1="-1.42305e-05" y1="32.6435" x2="288.37" y2="32.6435" gradientUnits="userSpaceOnUse">
<stop offset="0.01" stop-color="#FBC926"/>
<stop offset="0.25" stop-color="#FFFBCC"/>
<stop offset="0.44" stop-color="#FBF2BB"/>
<stop offset="0.82" stop-color="#F0D98E"/>
<stop offset="0.87" stop-color="#EED688"/>
<stop offset="1" stop-color="#FFFBCC"/>
</linearGradient>
<linearGradient id="paint3_linear_20_158" x1="3.51342e-05" y1="32.6435" x2="288.37" y2="32.6435" gradientUnits="userSpaceOnUse">
<stop offset="0.01" stop-color="#FBC926"/>
<stop offset="0.25" stop-color="#FFFBCC"/>
<stop offset="0.44" stop-color="#FBF2BB"/>
<stop offset="0.82" stop-color="#F0D98E"/>
<stop offset="0.87" stop-color="#EED688"/>
<stop offset="1" stop-color="#FFFBCC"/>
</linearGradient>
<linearGradient id="paint4_linear_20_158" x1="9.30021e-05" y1="32.6435" x2="288.37" y2="32.6435" gradientUnits="userSpaceOnUse">
<stop offset="0.01" stop-color="#FBC926"/>
<stop offset="0.25" stop-color="#FFFBCC"/>
<stop offset="0.44" stop-color="#FBF2BB"/>
<stop offset="0.82" stop-color="#F0D98E"/>
<stop offset="0.87" stop-color="#EED688"/>
<stop offset="1" stop-color="#FFFBCC"/>
</linearGradient>
<linearGradient id="paint5_linear_20_158" x1="-0.000134213" y1="32.6435" x2="288.37" y2="32.6435" gradientUnits="userSpaceOnUse">
<stop offset="0.01" stop-color="#FBC926"/>
<stop offset="0.25" stop-color="#FFFBCC"/>
<stop offset="0.44" stop-color="#FBF2BB"/>
<stop offset="0.82" stop-color="#F0D98E"/>
<stop offset="0.87" stop-color="#EED688"/>
<stop offset="1" stop-color="#FFFBCC"/>
</linearGradient>
<linearGradient id="paint6_linear_20_158" x1="5.56842e-05" y1="32.6435" x2="288.37" y2="32.6435" gradientUnits="userSpaceOnUse">
<stop offset="0.01" stop-color="#FBC926"/>
<stop offset="0.25" stop-color="#FFFBCC"/>
<stop offset="0.44" stop-color="#FBF2BB"/>
<stop offset="0.82" stop-color="#F0D98E"/>
<stop offset="0.87" stop-color="#EED688"/>
<stop offset="1" stop-color="#FFFBCC"/>
</linearGradient>
<linearGradient id="paint7_linear_20_158" x1="0.000136957" y1="32.6435" x2="288.37" y2="32.6435" gradientUnits="userSpaceOnUse">
<stop offset="0.01" stop-color="#FBC926"/>
<stop offset="0.25" stop-color="#FFFBCC"/>
<stop offset="0.44" stop-color="#FBF2BB"/>
<stop offset="0.82" stop-color="#F0D98E"/>
<stop offset="0.87" stop-color="#EED688"/>
<stop offset="1" stop-color="#FFFBCC"/>
</linearGradient>
<linearGradient id="paint8_linear_20_158" x1="2.16582e-05" y1="32.6436" x2="288.37" y2="32.6436" gradientUnits="userSpaceOnUse">
<stop offset="0.01" stop-color="#FBC926"/>
<stop offset="0.25" stop-color="#FFFBCC"/>
<stop offset="0.44" stop-color="#FBF2BB"/>
<stop offset="0.82" stop-color="#F0D98E"/>
<stop offset="0.87" stop-color="#EED688"/>
<stop offset="1" stop-color="#FFFBCC"/>
</linearGradient>
<linearGradient id="paint9_linear_20_158" x1="6.89955e-05" y1="32.6435" x2="288.37" y2="32.6435" gradientUnits="userSpaceOnUse">
<stop offset="0.01" stop-color="#FBC926"/>
<stop offset="0.25" stop-color="#FFFBCC"/>
<stop offset="0.44" stop-color="#FBF2BB"/>
<stop offset="0.82" stop-color="#F0D98E"/>
<stop offset="0.87" stop-color="#EED688"/>
<stop offset="1" stop-color="#FFFBCC"/>
</linearGradient>
<linearGradient id="paint10_linear_20_158" x1="-0.000247851" y1="32.6436" x2="288.37" y2="32.6436" gradientUnits="userSpaceOnUse">
<stop offset="0.01" stop-color="#FBC926"/>
<stop offset="0.25" stop-color="#FFFBCC"/>
<stop offset="0.44" stop-color="#FBF2BB"/>
<stop offset="0.82" stop-color="#F0D98E"/>
<stop offset="0.87" stop-color="#EED688"/>
<stop offset="1" stop-color="#FFFBCC"/>
</linearGradient>
<linearGradient id="paint11_linear_20_158" x1="-0.000135804" y1="32.6435" x2="288.37" y2="32.6435" gradientUnits="userSpaceOnUse">
<stop offset="0.01" stop-color="#FBC926"/>
<stop offset="0.25" stop-color="#FFFBCC"/>
<stop offset="0.44" stop-color="#FBF2BB"/>
<stop offset="0.82" stop-color="#F0D98E"/>
<stop offset="0.87" stop-color="#EED688"/>
<stop offset="1" stop-color="#FFFBCC"/>
</linearGradient>
</defs>
</svg>
