<svg width="22" height="16" viewBox="0 0 22 16" fill="none" xmlns="http://www.w3.org/2000/svg">
<path d="M20.667 2H1.66699C1.12033 2 0.666992 1.54667 0.666992 1C0.666992 0.453333 1.12033 0 1.66699 0L20.667 0C21.2137 0 21.667 0.453333 21.667 1C21.667 1.54667 21.2137 2 20.667 2Z" fill="white"/>
<path d="M20.6677 8.66663H8.04102C7.49435 8.66663 7.04102 8.21329 7.04102 7.66663C7.04102 7.11996 7.49435 6.66663 8.04102 6.66663H20.6677C21.2143 6.66663 21.6677 7.11996 21.6677 7.66663C21.6677 8.21329 21.2143 8.66663 20.6677 8.66663Z" fill="white"/>
<path d="M20.667 15.3334H1.66699C1.12033 15.3334 0.666992 14.88 0.666992 14.3334C0.666992 13.7867 1.12033 13.3334 1.66699 13.3334L20.667 13.3334C21.2137 13.3334 21.667 13.7867 21.667 14.3334C21.667 14.88 21.2137 15.3334 20.667 15.3334Z" fill="white"/>
</svg>
